<svg width="47" height="47" viewBox="0 0 47 47" fill="none" xmlns="http://www.w3.org/2000/svg">
<path d="M47 33.3465C47 41.9005 41.9005 47 33.3465 47H30.55C29.2575 47 28.2 45.9425 28.2 44.65V31.0905C28.2 30.456 28.717 29.9155 29.3515 29.9155L33.4875 29.845C33.8165 29.8215 34.0985 29.5865 34.169 29.2575L34.9915 24.769C35.0075 24.6673 35.0012 24.5633 34.9731 24.4642C34.945 24.3651 34.8957 24.2733 34.8287 24.1952C34.7617 24.117 34.6785 24.0542 34.5849 24.0113C34.4913 23.9684 34.3895 23.9463 34.2865 23.9465L29.281 24.017C28.623 24.017 28.106 23.5 28.0825 22.8655L27.9885 17.108C27.9885 16.732 28.294 16.403 28.6935 16.403L34.3335 16.309C34.733 16.309 35.0385 16.0035 35.0385 15.604L34.9445 9.964C34.9445 9.5645 34.639 9.259 34.2395 9.259L27.8945 9.353C26.9683 9.36707 26.0539 9.56378 25.2039 9.93186C24.3538 10.2999 23.5847 10.8321 22.9407 11.498C22.2967 12.1638 21.7904 12.9502 21.4509 13.8121C21.1113 14.6739 20.9452 15.5943 20.962 16.5205L21.0795 22.983C21.103 23.641 20.586 24.158 19.928 24.1815L17.108 24.2285C16.7085 24.2285 16.403 24.534 16.403 24.9335L16.4735 29.3985C16.4735 29.798 16.779 30.1035 17.1785 30.1035L19.9985 30.0565C20.6565 30.0565 21.1735 30.5735 21.197 31.208L21.4085 44.603C21.432 45.919 20.3745 47 19.0585 47H13.6535C5.0995 47 0 41.9005 0 33.323V13.6535C0 5.0995 5.0995 0 13.6535 0H33.3465C41.9005 0 47 5.0995 47 13.6535V33.3465Z" fill="white"/>
</svg>
