<?xml version="1.0" encoding="utf-8"?>
<!-- Generator: Adobe Illustrator 27.1.1, SVG Export Plug-In . SVG Version: 6.00 Build 0)  -->
<svg version="1.1" id="Layer_1" xmlns="http://www.w3.org/2000/svg" xmlns:xlink="http://www.w3.org/1999/xlink" x="0px" y="0px"
	 viewBox="0 0 30 30" style="enable-background:new 0 0 30 30;" xml:space="preserve">
<style type="text/css">
	.st0{fill:#3C3C3B;}
</style>
<g id="nanas">
</g>
<g id="XMLID_404_">
	<path id="XMLID_405_" class="st0" d="M13.32,11.26c-0.14,0.08-0.27,0.16-0.41,0.26c-0.03,0.02-0.07,0.05-0.1,0.07
		c-0.02,0.01-0.04,0.03-0.06,0.04c0,0-0.09,0.07-0.14,0.11c0.09,0.6,0.31,1.34,0.67,2c0.22-0.11,0.41-0.19,0.56-0.25
		c0.06-0.02,0.12-0.01,0.16,0.03c0,0,0,0,0.01,0.01c0.15-0.2,0.34-0.39,0.59-0.57c0.09-0.56,0.15-1.5-0.28-1.99
		c-0.08,0.09-0.17,0.17-0.28,0.22C13.79,11.32,13.54,11.34,13.32,11.26z"/>
	<path id="XMLID_406_" class="st0" d="M12.23,13.4c-0.07-0.11-0.14-0.22-0.21-0.35c-0.07-0.13-0.14-0.26-0.2-0.41
		c-0.02-0.03-0.03-0.07-0.05-0.11c-0.01,0.02-0.03,0.03-0.04,0.05c-0.08,0.09-0.17,0.19-0.25,0.29c0.04,0.13,0.09,0.25,0.14,0.37
		c0.06,0.14,0.12,0.28,0.18,0.4c0.12,0.24,0.24,0.44,0.32,0.57c0.04,0.07,0.08,0.12,0.1,0.16c0.01,0.02,0.02,0.03,0.03,0.04
		c0.16-0.13,0.31-0.24,0.47-0.34c0,0,0,0,0,0c0,0,0,0-0.01-0.01c-0.01-0.01-0.02-0.02-0.03-0.03c-0.02-0.03-0.06-0.07-0.1-0.13
		C12.49,13.78,12.37,13.61,12.23,13.4z"/>
	<path id="XMLID_407_" class="st0" d="M11.08,13.54c-0.02-0.03-0.03-0.05-0.05-0.08c-0.08,0.11-0.17,0.23-0.25,0.35
		c0.06,0.12,0.13,0.23,0.2,0.33c0.08,0.12,0.16,0.24,0.24,0.34c0.15,0.2,0.3,0.36,0.4,0.47c0.02,0.02,0.04,0.04,0.05,0.06
		c0.12-0.15,0.25-0.28,0.39-0.41c-0.02-0.01-0.04-0.03-0.06-0.05c-0.1-0.09-0.25-0.21-0.41-0.38c-0.08-0.08-0.16-0.18-0.25-0.28
		C11.24,13.77,11.16,13.66,11.08,13.54z"/>
	<path id="XMLID_408_" class="st0" d="M10.36,14.4c-0.05,0.08-0.1,0.15-0.15,0.23c0.01,0.01,0.02,0.02,0.03,0.03
		c0.2,0.19,0.38,0.37,0.54,0.52c0.21,0.2,0.37,0.36,0.46,0.44c0.06-0.12,0.14-0.23,0.21-0.34c-0.1-0.08-0.25-0.21-0.44-0.36
		c-0.17-0.14-0.37-0.3-0.58-0.47C10.4,14.43,10.38,14.41,10.36,14.4z"/>
	<path id="XMLID_409_" class="st0" d="M10.03,15.27c-0.06-0.03-0.13-0.07-0.19-0.1c-0.03,0.04-0.06,0.09-0.09,0.13
		c-0.01,0.02-0.02,0.03-0.03,0.05c0.06,0.04,0.13,0.08,0.19,0.12c0.04,0.03,0.09,0.06,0.13,0.09c0.04,0.03,0.09,0.06,0.13,0.1
		c0.17,0.13,0.32,0.24,0.46,0.34c0.13,0.1,0.25,0.19,0.32,0.24c0.01-0.01,0.03-0.01,0.04-0.02c0.04-0.12,0.08-0.23,0.13-0.34
		c-0.08-0.05-0.18-0.11-0.3-0.18c-0.14-0.08-0.31-0.18-0.49-0.29c-0.05-0.03-0.09-0.05-0.14-0.08
		C10.13,15.32,10.08,15.29,10.03,15.27z"/>
	<path id="XMLID_410_" class="st0" d="M16.25,16.69c0.67,0.37,1.4,0.58,2,0.67c0.61,0.1,0.91,0.06,1.06,0.01
		c0.06-0.02,0.1-0.04,0.12-0.07c0,0,0,0,0,0c-0.05-0.03-0.1-0.05-0.15-0.08c-0.01,0-0.01-0.01-0.02-0.01
		c-0.43-0.25-0.54-0.54-0.54-0.54c-0.09-0.22-0.07-0.48,0.06-0.74c0.05-0.11,0.13-0.21,0.22-0.28c-0.49-0.42-1.43-0.36-1.99-0.27
		c-0.18,0.25-0.36,0.45-0.56,0.59c0,0,0,0,0.01,0.01c0.04,0.04,0.06,0.11,0.04,0.16C16.45,16.27,16.36,16.47,16.25,16.69z"/>
	<path id="XMLID_411_" class="st0" d="M16.28,7.7c-0.52-0.79-0.36-1.4-0.36-1.4l-0.77,0.27l0.02-0.31c0,0-0.24,0.08-0.54,0.25
		l-0.14-0.14c0,0-1.28,0.38-1.38,1.38l-0.42,0.02c0,0-0.41,1.7,0.07,2.51c0.06,0.11,0.12,0.22,0.18,0.33
		c0.02,0.05,0.05,0.1,0.09,0.16c0.33-0.2,0.67-0.35,1.01-0.45c0.1-0.03,0.2-0.05,0.3-0.07L14.33,9c0.48-0.3,1.1-0.61,1.1-0.61
		l-0.21-0.08c0.56-0.29,1.14-0.48,1.14-0.48L16.28,7.7z"/>
	<path id="XMLID_412_" class="st0" d="M19.31,5.44l0.09-0.17c0.02-0.03,0.05-0.06,0.08-0.08c0.05-0.02,0.11-0.04,0.16-0.06
		c0.06-0.02,0.13-0.01,0.17,0.04c0.03,0.03,0.09,0.02,0.11-0.02l0.02-0.04c0.02-0.05,0.07-0.08,0.12-0.09C20.1,5.01,20.13,5,20.16,5
		c0.05-0.01,0.1,0.01,0.14,0.04l0.04,0.04c0.02,0.01,0.04,0.01,0.05-0.01l0.03-0.05c0.03-0.05,0.08-0.08,0.13-0.08l0,0
		c0.07-0.01,0.13,0.03,0.16,0.09c0.01,0.02,0.04,0.02,0.06,0.01l0.05-0.06c0.03-0.04,0.08-0.06,0.13-0.06c0.15,0,0.31,0,0.49,0.01
		c0,0-0.01,0-0.01-0.01l0.01,0.01c0,0-0.66-0.98-2.15-0.91c-0.71,0.03-1.44,0.29-2.01,0.66c-0.95,0.61-1.76,1.99-0.73,2.94
		c0.9,0.83,2.16,0.46,3.13-0.2l0,0c0,0,0,0,0,0c0.35-0.24,0.66-0.51,0.9-0.78c0.08-0.09,0.16-0.2,0.22-0.31
		c0.3-0.5,0.16-0.78,0.16-0.78c0,0-0.09,0.07-0.24,0.16L20.65,5.6l-0.04,0.12c-0.01,0.05-0.04,0.08-0.09,0.11l0,0
		c-0.08,0.05-0.18,0.05-0.26-0.01l-0.03-0.02l0,0.03c0,0.1-0.06,0.2-0.15,0.24C20.06,6.1,20.03,6.11,20,6.12
		c-0.1,0.05-0.22,0.05-0.32,0L19.65,6.1l0,0.15c0,0.02-0.01,0.04-0.04,0.05l0,0c-0.09,0.04-0.2,0.02-0.28-0.04l-0.05,0.08
		c-0.04,0.07-0.1,0.11-0.18,0.13c-0.01,0-0.02,0.01-0.04,0.01c-0.21,0.04-0.4-0.13-0.39-0.33c-0.01,0.01-0.02,0.02-0.03,0.03
		c-0.03,0.03-0.06,0.06-0.09,0.1c-0.02,0.02-0.03,0.04-0.05,0.06c-0.01,0.02-0.03,0.04-0.05,0.06c-0.03,0.04-0.06,0.09-0.08,0.14
		c-0.01,0.01-0.01,0.03-0.02,0.04c-0.01,0.01-0.01,0.03-0.02,0.04l-0.02,0.04c0,0.01-0.01,0.03-0.01,0.04
		c-0.01,0.03-0.01,0.05-0.02,0.08c0,0.01,0,0.03-0.01,0.04c0,0.01-0.01,0.03-0.01,0.04c0,0.01,0,0.03,0,0.04l0,0.02l0,0.02
		c0,0.03,0,0.05,0,0.08c0,0.01,0,0.03,0,0.04c0,0.01,0,0.03,0.01,0.04c0,0.01,0,0.03,0.01,0.04c0,0.01,0.01,0.02,0.01,0.04
		c0.01,0.05,0.03,0.09,0.04,0.13c0.01,0.02,0.02,0.04,0.03,0.06c0,0.01,0.01,0.02,0.01,0.03c0,0.01,0.01,0.02,0.01,0.02
		c0.02,0.03,0.03,0.06,0.05,0.08c0.03,0.04,0.04,0.07,0.04,0.07s-0.02-0.02-0.05-0.06c-0.02-0.02-0.03-0.05-0.05-0.08
		c-0.01-0.01-0.01-0.02-0.02-0.02c-0.01-0.01-0.01-0.02-0.01-0.03c-0.01-0.02-0.02-0.04-0.03-0.06c-0.02-0.04-0.04-0.08-0.06-0.13
		c0-0.01-0.01-0.02-0.01-0.04c0-0.01-0.01-0.03-0.01-0.04c0-0.01-0.01-0.03-0.01-0.04c0-0.01-0.01-0.03-0.01-0.04
		C18.21,7,18.21,6.97,18.21,6.94l0-0.02l0-0.02c0-0.02,0-0.03,0-0.05c0-0.02,0-0.03,0-0.05c0-0.02,0-0.03,0-0.05
		c0-0.03,0.01-0.06,0.01-0.09c0-0.02,0.01-0.03,0.01-0.05l0.01-0.04c0-0.01,0.01-0.03,0.01-0.04c0.01-0.01,0.01-0.03,0.02-0.04
		c0.02-0.06,0.05-0.11,0.08-0.16c0.01-0.03,0.03-0.05,0.04-0.07c0.02-0.02,0.03-0.05,0.05-0.07c0.03-0.04,0.06-0.08,0.09-0.12
		C18.6,6,18.66,5.95,18.7,5.91c0.02-0.02,0.04-0.03,0.05-0.04c0.01-0.01,0.01-0.01,0.02-0.01c0.04-0.06,0.11-0.09,0.19-0.09l0.08,0
		c0.02,0,0.04-0.02,0.04-0.04l-0.02-0.27c0.01-0.01,0.02-0.01,0.02-0.02C19.15,5.38,19.25,5.38,19.31,5.44z"/>
	<path id="XMLID_413_" class="st0" d="M12.57,11.09c0.01-0.01,0.02-0.01,0.02-0.02c0.09-0.07,0.18-0.13,0.28-0.19
		c-0.04-0.05-0.07-0.11-0.1-0.18c-0.03-0.05-0.05-0.1-0.08-0.15C12.61,10.6,12.56,10.8,12.57,11.09z"/>
	<path id="XMLID_414_" class="st0" d="M10.47,11.02c0-0.01,0-0.03,0.01-0.04c0-0.01,0.01-0.03,0.01-0.04
		c0.01-0.03,0.01-0.06,0.02-0.08c0.01-0.05,0.02-0.1,0.04-0.15c0.01-0.02,0.01-0.05,0.02-0.07c0.01-0.02,0.01-0.04,0.02-0.06
		c0.01-0.04,0.02-0.08,0.04-0.11c0.01-0.03,0.02-0.06,0.03-0.09c0.01-0.03,0.02-0.05,0.03-0.07c0.01-0.04,0.02-0.05,0.02-0.05
		s-0.01,0.02-0.03,0.05c-0.01,0.02-0.02,0.04-0.03,0.06c-0.01,0.02-0.03,0.05-0.04,0.09c-0.02,0.03-0.03,0.07-0.05,0.11
		c-0.01,0.02-0.02,0.04-0.03,0.06c-0.01,0.02-0.02,0.04-0.03,0.07c-0.02,0.05-0.04,0.1-0.06,0.15c-0.01,0.03-0.02,0.05-0.03,0.08
		c0,0.01-0.01,0.03-0.01,0.04c0,0.01-0.01,0.03-0.01,0.04c-0.04,0.12-0.07,0.25-0.09,0.39c-0.02,0.14-0.04,0.29-0.04,0.45
		c0,0.16,0,0.32,0.02,0.48c0.02,0.16,0.05,0.33,0.09,0.49c0.04,0.16,0.1,0.32,0.16,0.48c0,0,0,0.01,0,0.01
		c0.08-0.11,0.15-0.21,0.23-0.32c-0.04-0.09-0.08-0.17-0.11-0.26c-0.06-0.15-0.1-0.3-0.14-0.45c-0.04-0.15-0.06-0.3-0.07-0.45
		c-0.01-0.15-0.01-0.29-0.01-0.43C10.44,11.27,10.45,11.14,10.47,11.02z"/>
	<path id="XMLID_415_" class="st0" d="M9.61,14.07c0.09,0.07,0.18,0.15,0.26,0.23c0.04-0.07,0.09-0.13,0.13-0.2
		c-0.09-0.07-0.18-0.13-0.27-0.2c-0.06-0.04-0.13-0.08-0.19-0.12c-0.06-0.04-0.13-0.08-0.2-0.11c-0.07-0.03-0.13-0.06-0.2-0.09
		c-0.03-0.01-0.07-0.03-0.1-0.04c-0.03-0.01-0.07-0.02-0.1-0.03c-0.14-0.04-0.27-0.07-0.4-0.08c-0.13-0.02-0.25-0.03-0.36-0.03
		c-0.11-0.01-0.21-0.01-0.3-0.01c-0.09,0-0.17,0-0.23,0c-0.13,0-0.2,0-0.2,0s0.07,0.01,0.2,0.01c0.06,0,0.14,0.01,0.23,0.02
		c0.09,0.01,0.19,0.02,0.3,0.04c0.11,0.02,0.23,0.04,0.35,0.06c0.12,0.03,0.25,0.07,0.37,0.11c0.03,0.01,0.06,0.03,0.09,0.04
		c0.03,0.01,0.06,0.03,0.09,0.04c0.06,0.03,0.12,0.06,0.18,0.1c0.06,0.04,0.12,0.08,0.18,0.12C9.5,13.98,9.56,14.02,9.61,14.07z"/>
	<path id="XMLID_416_" class="st0" d="M9.04,15c-0.22,0.01-0.41,0.06-0.57,0.1c-0.08,0.02-0.16,0.04-0.22,0.06
		c-0.07,0.02-0.12,0.04-0.17,0.05c-0.09,0.03-0.15,0.05-0.15,0.05s0.05-0.01,0.15-0.03c0.05-0.01,0.11-0.02,0.17-0.03
		c0.07-0.01,0.14-0.02,0.22-0.04c0.08-0.01,0.17-0.02,0.27-0.03c0.09-0.01,0.19-0.01,0.29,0c0.09,0.01,0.18,0.02,0.27,0.04
		c0.02-0.04,0.05-0.08,0.07-0.11c0.01-0.01,0.02-0.02,0.02-0.03c-0.01,0-0.02,0-0.03,0C9.26,15,9.15,15,9.04,15z"/>
	<path id="XMLID_417_" class="st0" d="M11.49,10.26c0.03-0.14,0.07-0.28,0.11-0.4c0.04-0.12,0.09-0.23,0.13-0.33
		c0.04-0.1,0.09-0.18,0.12-0.24c0.02-0.03,0.04-0.06,0.05-0.09c0.02-0.03,0.03-0.05,0.04-0.06c0.02-0.03,0.03-0.05,0.03-0.05
		s-0.01,0.02-0.04,0.05c-0.01,0.02-0.03,0.04-0.05,0.06c-0.02,0.02-0.04,0.05-0.06,0.08c-0.04,0.06-0.1,0.14-0.15,0.23
		c-0.05,0.09-0.11,0.2-0.17,0.32c-0.05,0.12-0.11,0.25-0.15,0.4c-0.05,0.15-0.08,0.3-0.11,0.47c-0.03,0.17-0.04,0.34-0.05,0.52
		c0,0.18,0.01,0.36,0.03,0.54c0.02,0.18,0.05,0.36,0.09,0.53c0.01-0.01,0.02-0.03,0.04-0.04c0.08-0.09,0.16-0.18,0.23-0.26
		c-0.03-0.09-0.05-0.19-0.07-0.28c-0.04-0.16-0.06-0.33-0.08-0.5c-0.01-0.17-0.02-0.33-0.01-0.49
		C11.44,10.56,11.46,10.4,11.49,10.26z"/>
	<path id="XMLID_435_" class="st0" d="M14.84,21.51c-0.01,0.08-0.02,0.16-0.04,0.22c-0.01,0.07-0.02,0.13-0.03,0.17
		c-0.02,0.1-0.03,0.15-0.03,0.15s0.02-0.05,0.05-0.15c0.01-0.05,0.03-0.1,0.05-0.17c0.02-0.07,0.04-0.14,0.06-0.22
		c0.03-0.13,0.07-0.28,0.08-0.44l0,0c0.11-0.55-0.25-1.12-0.25-1.12c-0.03-0.05-0.06-0.1-0.08-0.14c-0.03-0.05-0.05-0.09-0.08-0.14
		c-0.11-0.18-0.21-0.35-0.29-0.49c-0.07-0.12-0.13-0.22-0.18-0.3c-0.11,0.05-0.22,0.09-0.34,0.13c0,0.01-0.01,0.03-0.02,0.04
		c0.06,0.08,0.14,0.19,0.25,0.32c0.08,0.1,0.17,0.22,0.26,0.35c0.51,0.67,0.57,0.95,0.57,0.95c0.02,0.09,0.03,0.18,0.04,0.27
		c0.01,0.1,0,0.2,0,0.29C14.86,21.33,14.85,21.42,14.84,21.51z"/>
	<path id="XMLID_444_" class="st0" d="M20.17,18.46c0.12-0.05,0.23-0.11,0.32-0.17c0.09-0.06,0.17-0.11,0.23-0.15
		c0.03-0.02,0.06-0.04,0.08-0.06c0.02-0.02,0.04-0.03,0.06-0.05c0.03-0.03,0.05-0.04,0.05-0.04s-0.02,0.01-0.05,0.03
		c-0.02,0.01-0.04,0.02-0.06,0.04c-0.03,0.01-0.05,0.03-0.09,0.05c-0.07,0.04-0.15,0.08-0.24,0.13c-0.1,0.04-0.2,0.09-0.33,0.13
		c-0.12,0.04-0.26,0.08-0.4,0.11c-0.14,0.03-0.3,0.05-0.46,0.06c-0.16,0.01-0.32,0.01-0.49-0.01c-0.1-0.01-0.2-0.02-0.3-0.04
		c-0.65-0.13-1.18-0.36-1.46-0.5c-0.03-0.01-0.06-0.03-0.08-0.04c-0.13-0.07-0.24-0.14-0.35-0.21c-0.21-0.13-0.38-0.26-0.5-0.35
		c-0.06-0.04-0.1-0.08-0.13-0.1c-0.01-0.01-0.02-0.02-0.03-0.03c-0.01-0.01-0.01-0.01-0.01-0.01c0,0,0,0,0,0
		c-0.1,0.16-0.21,0.31-0.34,0.47c0.01,0.01,0.02,0.02,0.04,0.03c0.04,0.02,0.09,0.06,0.16,0.1c0.14,0.08,0.33,0.2,0.58,0.32
		c0.12,0.06,0.26,0.12,0.4,0.18c0.1,0.04,0.2,0.08,0.31,0.12c0.43,0.16,0.65,0.19,0.65,0.19c0.17,0.04,0.35,0.07,0.53,0.09
		c0.18,0.02,0.36,0.03,0.54,0.02c0.18,0,0.35-0.02,0.52-0.05c0.17-0.03,0.32-0.06,0.47-0.11C19.91,18.57,20.05,18.52,20.17,18.46z"
		/>
	<path id="XMLID_445_" class="st0" d="M15.38,19.78l0.32,0.33c0.08,0.09,0.16,0.17,0.23,0.26c0.05,0.06,0.09,0.11,0.13,0.17
		c0.04,0.06,0.08,0.12,0.12,0.17c0.04,0.06,0.07,0.12,0.1,0.18c0.02,0.03,0.03,0.06,0.04,0.09c0.01,0.03,0.03,0.06,0.04,0.09
		c0.05,0.13,0.09,0.25,0.11,0.37c0.03,0.12,0.05,0.24,0.07,0.35c0.02,0.11,0.03,0.21,0.04,0.3c0.01,0.09,0.02,0.17,0.02,0.23
		c0.01,0.13,0.02,0.2,0.02,0.2s0-0.07,0-0.2c0-0.06,0-0.14,0-0.23c0-0.09,0-0.19-0.01-0.3c-0.01-0.11-0.02-0.23-0.04-0.36
		c-0.02-0.13-0.05-0.26-0.09-0.4c-0.01-0.03-0.02-0.07-0.03-0.1c-0.01-0.04-0.02-0.07-0.04-0.1c-0.03-0.07-0.06-0.14-0.09-0.2
		c-0.03-0.07-0.07-0.13-0.11-0.2c-0.02-0.04-0.06-0.1-0.12-0.18c0,0-0.01-0.01-0.01-0.01c-0.06-0.09-0.13-0.18-0.2-0.27c0,0,0,0,0,0
		c-0.29-0.38-0.67-0.82-0.67-0.82c-0.05-0.06-0.1-0.12-0.15-0.18c-0.15-0.19-0.28-0.34-0.36-0.44c-0.11,0.08-0.22,0.15-0.34,0.21
		c0.08,0.09,0.24,0.25,0.45,0.46c0.15,0.16,0.33,0.34,0.53,0.54C15.36,19.76,15.37,19.77,15.38,19.78z"/>
	<path id="XMLID_446_" class="st0" d="M17.18,19.61c0.16,0.04,0.33,0.07,0.49,0.09c0.16,0.02,0.33,0.03,0.48,0.02
		c0.16,0,0.31-0.02,0.45-0.04c0.14-0.02,0.27-0.05,0.39-0.09c0.01,0,0.03-0.01,0.04-0.01c0.01,0,0.03-0.01,0.04-0.01
		c0.03-0.01,0.06-0.02,0.08-0.03c0.05-0.02,0.1-0.04,0.15-0.06c0.02-0.01,0.05-0.02,0.07-0.03c0.02-0.01,0.04-0.02,0.06-0.03
		c0.04-0.02,0.08-0.03,0.11-0.05c0.03-0.02,0.06-0.03,0.09-0.04c0.02-0.01,0.05-0.02,0.06-0.03c0.03-0.02,0.05-0.03,0.05-0.03
		s-0.02,0.01-0.05,0.02c-0.02,0.01-0.04,0.02-0.07,0.03c-0.03,0.01-0.06,0.02-0.09,0.03c-0.03,0.01-0.07,0.02-0.11,0.04
		c-0.02,0.01-0.04,0.01-0.06,0.02c-0.02,0.01-0.05,0.01-0.07,0.02c-0.05,0.01-0.1,0.03-0.15,0.04c-0.03,0.01-0.05,0.01-0.08,0.02
		c-0.01,0-0.03,0.01-0.04,0.01c-0.01,0-0.03,0-0.04,0.01c-0.12,0.02-0.25,0.04-0.38,0.04c-0.14,0.01-0.28,0.01-0.43-0.01
		c-0.15-0.01-0.3-0.04-0.45-0.07c-0.15-0.04-0.3-0.08-0.45-0.14c-0.01,0-0.02-0.01-0.03-0.01c-0.57-0.23-1.03-0.59-1.26-0.78
		c0,0,0,0,0,0c0,0-0.01,0-0.01-0.01c-0.05-0.04-0.09-0.08-0.13-0.12c-0.17-0.16-0.3-0.3-0.38-0.41c-0.02-0.02-0.04-0.04-0.05-0.06
		c-0.12,0.14-0.26,0.27-0.41,0.39c0.02,0.02,0.04,0.03,0.06,0.05c0.11,0.1,0.27,0.25,0.47,0.4c0.02,0.01,0.04,0.03,0.06,0.04
		c0.09,0.06,0.18,0.13,0.28,0.19c0.1,0.07,0.21,0.13,0.33,0.2c0,0,0,0,0,0c0.29,0.16,0.51,0.24,0.51,0.24
		C16.86,19.51,17.02,19.56,17.18,19.61z"/>
	<path id="XMLID_447_" class="st0" d="M9.16,20.82C9.17,20.83,9.17,20.83,9.16,20.82c0.01,0.01,0.01,0.01,0.02,0.02
		c0.37,0.34,0.81,0.69,1.35,0.99c0.35-0.38,0.45-0.89,0.45-0.89c-0.01,0-0.01-0.01-0.02-0.01c0,0,0-0.01,0-0.01
		c-0.45-0.24-0.81-0.51-1.1-0.78c-0.27-0.29-0.55-0.66-0.79-1.1c0,0,0,0-0.01,0c0-0.01-0.01-0.01-0.01-0.02c0,0-0.51,0.1-0.89,0.45
		C8.47,20.01,8.82,20.46,9.16,20.82z"/>
	<path id="XMLID_448_" class="st0" d="M7.7,22.29C7.71,22.29,7.71,22.29,7.7,22.29c0.01,0.01,0.01,0.01,0.02,0.02
		c0.28,0.26,0.62,0.53,1.04,0.76c0.27-0.29,0.35-0.68,0.35-0.68c-0.01,0-0.01-0.01-0.02-0.01c0,0,0-0.01,0-0.01
		c-0.34-0.18-0.62-0.39-0.84-0.6c-0.21-0.22-0.42-0.5-0.6-0.84c0,0,0,0-0.01,0c0-0.01-0.01-0.01-0.01-0.02c0,0-0.39,0.08-0.68,0.35
		C7.18,21.66,7.44,22.01,7.7,22.29z"/>
	<path id="XMLID_449_" class="st0" d="M8.4,21.59C8.4,21.59,8.4,21.6,8.4,21.59c0.01,0.01,0.01,0.01,0.02,0.02
		c0.32,0.3,0.71,0.6,1.18,0.86c0.31-0.34,0.39-0.78,0.39-0.78c-0.01,0-0.01-0.01-0.02-0.01c0,0,0-0.01,0-0.01
		C9.58,21.47,9.26,21.23,9.01,21c-0.24-0.26-0.48-0.57-0.69-0.96c0,0,0,0-0.01,0c0-0.01-0.01-0.01-0.01-0.02c0,0-0.44,0.09-0.78,0.4
		C7.8,20.88,8.1,21.27,8.4,21.59z"/>
	<path id="XMLID_450_" class="st0" d="M6.78,21.37c0-0.01-0.01-0.01-0.01-0.02c-0.52,0.01-1.15,0.11-1.05,0.53l0.01,0.01
		c0,0,0,0.01,0,0.01l0.79,0.38c-0.1,0.01-0.7,0.05-0.47,0.27c0.03,0.03,0.08,0.07,0.15,0.11c0.33,0.18,0.7,0.21,0.94,0.2
		c-0.01,0.24,0.02,0.61,0.21,0.94c0.04,0.07,0.08,0.12,0.11,0.15c0.21,0.23,0.26-0.37,0.26-0.47l0.38,0.79c0,0,0.01,0,0.01,0
		l0.01,0.01c0.42,0.1,0.52-0.52,0.53-1.05c-0.01,0-0.01-0.01-0.02-0.01c0,0,0,0,0-0.01c-0.38-0.22-0.74-0.48-1.07-0.78
		C7.27,22.11,7.01,21.75,6.78,21.37C6.79,21.37,6.79,21.37,6.78,21.37z"/>
	<path id="XMLID_451_" class="st0" d="M13.59,11.11c0.11,0,0.24-0.02,0.39-0.09c0.06-0.03,0.12-0.07,0.17-0.12
		C13.96,10.95,13.78,11.03,13.59,11.11z"/>
	<path id="XMLID_452_" class="st0" d="M11.75,18.25c-0.31-0.34-0.63-0.75-0.9-1.26c0,0,0,0-0.01,0c0-0.01-0.01-0.01-0.01-0.02
		c0,0-0.58,0.11-1.02,0.52c0.35,0.61,0.75,1.12,1.14,1.54c0,0,0.01,0.01,0.01,0.01c0,0,0.01,0.01,0.01,0.01
		c0.42,0.39,0.93,0.78,1.55,1.13c0.4-0.44,0.52-1.02,0.52-1.02c-0.01,0-0.01-0.01-0.02-0.01c0,0,0-0.01,0-0.01
		C12.5,18.87,12.08,18.56,11.75,18.25z"/>
	<path id="XMLID_453_" class="st0" d="M10.02,19.96C10.02,19.97,10.02,19.97,10.02,19.96c0.01,0.01,0.01,0.01,0.02,0.02
		c0.41,0.38,0.9,0.76,1.5,1.1c0.39-0.43,0.5-0.99,0.5-0.99c-0.01,0-0.01-0.01-0.02-0.01c0,0,0-0.01,0-0.01
		c-0.49-0.26-0.9-0.57-1.22-0.87c-0.3-0.32-0.61-0.73-0.87-1.22c0,0,0,0-0.01,0c0-0.01-0.01-0.01-0.01-0.02c0,0-0.56,0.11-0.99,0.5
		C9.26,19.06,9.64,19.56,10.02,19.96z"/>
	<path id="XMLID_454_" class="st0" d="M13.91,13.63c-0.01,0-0.02,0.01-0.03,0.01c0.01-0.01,0.01-0.02,0.02-0.03
		c-0.69,0.26-2.31,1.04-2.8,2.69c0,0-0.41,0.06-0.51,0.53c0.02-0.01,0.04-0.01,0.05-0.02c0,0.01,0,0.02-0.01,0.02
		c0.1-0.03,0.17-0.05,0.18-0.05c0.06-0.01,0.12,0.01,0.17,0.05c0.01,0.01,0.02,0.02,0.02,0.04c0.24,0.45,0.53,0.86,0.88,1.22
		c0,0,0.01,0.01,0.01,0.01c0,0,0.01,0.01,0.01,0.01c0.37,0.34,0.78,0.64,1.23,0.87c0.01,0.01,0.02,0.01,0.04,0.02
		c0.04,0.04,0.06,0.11,0.05,0.17c0,0.01-0.02,0.08-0.05,0.18c0.01,0,0.02,0,0.02-0.01c0,0.02-0.01,0.03-0.02,0.05
		c0.47-0.1,0.52-0.51,0.52-0.51c1.65-0.5,2.42-2.12,2.69-2.81c-0.01,0.01-0.02,0.01-0.03,0.02c0-0.01,0.01-0.02,0.01-0.03
		c-0.09,0.05-0.18,0.1-0.27,0.13c-0.44,0.17-0.91,0.14-1.41-0.1l-0.01,0l-0.01-0.01c-0.15-0.1-0.29-0.21-0.42-0.34
		c-0.13-0.13-0.24-0.27-0.34-0.42l-0.01-0.01l0-0.01c-0.24-0.5-0.28-0.98-0.11-1.41C13.82,13.81,13.86,13.72,13.91,13.63z"/>
	<path id="XMLID_455_" class="st0" d="M22.15,13.59c0,0-0.19,0.58-0.48,1.15l-0.08-0.21c0,0-0.3,0.62-0.6,1.11l-1.25-0.01
		c0,0-0.43-0.03-0.65,0.2C19.04,15.88,19,15.93,18.97,16c-0.02,0.04-0.03,0.07-0.04,0.11l0,0l0,0c-0.04,0.1-0.05,0.19-0.05,0.28
		c0,0-0.01,0.27,0.34,0.56l0,0c0.01,0,0.01,0.01,0.02,0.01c0.15,0.12,0.35,0.24,0.64,0.34c0.04,0.02,0.08,0.03,0.13,0.04
		c0,0,0,0,0,0v0c0.87,0.26,2.21-0.06,2.21-0.06l0.02-0.42c1-0.1,1.38-1.38,1.38-1.38l-0.14-0.14c0.17-0.3,0.25-0.54,0.25-0.54
		l-0.31,0.03l0.22-0.64c-0.05-0.04-0.09-0.07-0.14-0.11c-0.24,0.01-0.69-0.03-1.22-0.38L22.15,13.59z"/>
	<path id="XMLID_456_" class="st0" d="M21.89,12.44c0.57,0.11,1.1,0.3,1.57,0.56c0.31,0.17,0.6,0.38,0.87,0.62
		c0.39-0.23,0.74-0.57,0.97-0.94c0.36-0.57,0.62-1.3,0.65-2.01c0.07-1.49-0.92-2.15-0.92-2.15l0.01,0.01c0-0.01-0.01-0.01-0.01-0.01
		c0.01,0.17,0.01,0.33,0.01,0.49c0,0.05-0.02,0.1-0.06,0.13l-0.06,0.05c-0.02,0.02-0.02,0.04,0.01,0.06c0.06,0.03,0.1,0.1,0.09,0.16
		l0,0c0,0.05-0.03,0.1-0.08,0.13l-0.05,0.03c-0.02,0.01-0.02,0.04-0.01,0.05l0.04,0.04c0.04,0.04,0.05,0.09,0.04,0.14
		c-0.01,0.03-0.01,0.06-0.02,0.09c-0.01,0.05-0.04,0.09-0.09,0.12l-0.04,0.02c-0.04,0.02-0.05,0.08-0.02,0.11
		c0.05,0.05,0.06,0.11,0.04,0.17c-0.02,0.06-0.04,0.11-0.06,0.16c-0.02,0.04-0.04,0.06-0.08,0.08l-0.17,0.09
		c0.06,0.07,0.06,0.17,0,0.23c-0.01,0.01-0.01,0.02-0.02,0.02l-0.27-0.02c-0.02,0-0.04,0.02-0.04,0.04l0,0.08
		c0,0.08-0.03,0.15-0.09,0.19c0,0-0.01,0.01-0.01,0.02c-0.01,0.01-0.02,0.03-0.04,0.05c-0.04,0.04-0.09,0.1-0.16,0.16
		c-0.04,0.03-0.07,0.06-0.12,0.09c-0.02,0.02-0.04,0.03-0.07,0.05c-0.02,0.01-0.05,0.03-0.07,0.04c-0.05,0.03-0.1,0.05-0.16,0.08
		c-0.01,0.01-0.03,0.01-0.04,0.02c-0.01,0.01-0.03,0.01-0.04,0.01l-0.04,0.01c-0.02,0-0.03,0.01-0.05,0.01
		c-0.03,0.01-0.06,0.01-0.09,0.02c-0.02,0-0.03,0-0.05,0c-0.02,0-0.03,0-0.05,0c-0.02,0-0.03,0-0.05,0l-0.02,0l-0.02,0
		c-0.03,0-0.06-0.01-0.09-0.01c-0.01,0-0.03-0.01-0.04-0.01c-0.01,0-0.03-0.01-0.04-0.01c-0.01,0-0.03-0.01-0.04-0.01
		c-0.01,0-0.03-0.01-0.04-0.01c-0.05-0.02-0.09-0.04-0.13-0.06c-0.02-0.01-0.04-0.02-0.06-0.03c-0.01-0.01-0.02-0.01-0.03-0.01
		c-0.01-0.01-0.02-0.01-0.02-0.02c-0.03-0.02-0.06-0.04-0.08-0.05c-0.04-0.03-0.06-0.05-0.06-0.05s0.02,0.02,0.07,0.04
		c0.02,0.01,0.05,0.03,0.08,0.05c0.01,0,0.02,0.01,0.02,0.01c0.01,0,0.02,0.01,0.03,0.01c0.02,0.01,0.04,0.02,0.06,0.03
		c0.04,0.01,0.09,0.03,0.13,0.04c0.01,0,0.02,0.01,0.04,0.01c0.01,0,0.03,0,0.04,0.01c0.01,0,0.03,0,0.04,0.01c0.01,0,0.03,0,0.04,0
		c0.03,0,0.05,0,0.08,0l0.02,0l0.02,0c0.01,0,0.03,0,0.04,0c0.01,0,0.03,0,0.04-0.01c0.01,0,0.03,0,0.04-0.01
		c0.03-0.01,0.06-0.01,0.08-0.02c0.01,0,0.03-0.01,0.04-0.01l0.04-0.02c0.01,0,0.03-0.01,0.04-0.02c0.01-0.01,0.03-0.01,0.04-0.02
		c0.05-0.03,0.1-0.05,0.14-0.08c0.02-0.01,0.04-0.03,0.06-0.05c0.02-0.02,0.04-0.03,0.06-0.05c0.04-0.03,0.07-0.06,0.1-0.1
		c0.01-0.01,0.02-0.02,0.03-0.03c-0.21,0.01-0.38-0.18-0.34-0.39c0-0.01,0-0.02,0.01-0.04c0.02-0.08,0.06-0.14,0.13-0.18l0.08-0.05
		c-0.07-0.08-0.08-0.19-0.04-0.28l0,0c0.01-0.02,0.03-0.04,0.05-0.04l0.15,0l-0.02-0.03c-0.05-0.1-0.06-0.22-0.01-0.32
		c0.01-0.03,0.03-0.05,0.04-0.08c0.05-0.09,0.14-0.15,0.24-0.16l0.03,0l-0.02-0.03c-0.05-0.08-0.06-0.18-0.01-0.26l0,0
		c0.02-0.04,0.06-0.07,0.11-0.09l0.12-0.04l-0.12-0.06c0.1-0.15,0.16-0.24,0.16-0.24c0,0-0.29-0.14-0.78,0.16
		c-0.11,0.06-0.22,0.13-0.31,0.22c-0.27,0.24-0.54,0.55-0.78,0.9c0,0,0,0,0,0h0C22.1,10.94,21.79,11.72,21.89,12.44z"/>
	<path id="XMLID_457_" class="st0" d="M22.42,13.49c0.25,0.24,0.53,0.37,0.82,0.4c-0.07-0.04-0.14-0.09-0.21-0.12
		C22.84,13.65,22.64,13.56,22.42,13.49z"/>
	<path id="XMLID_458_" class="st0" d="M27.45,9.75c-0.68-1.61-1.65-3.05-2.89-4.29s-2.68-2.22-4.29-2.9
		c-1.66-0.71-3.43-1.06-5.25-1.07c-0.01,0-0.01,0-0.02,0c-1.82,0-3.58,0.36-5.25,1.06C8.14,3.23,6.69,4.2,5.45,5.44
		c-1.24,1.24-2.22,2.69-2.9,4.3C1.85,11.4,1.49,13.17,1.49,15c0,1.82,0.36,3.59,1.06,5.26c0.68,1.61,1.65,3.05,2.9,4.29
		c1.24,1.24,2.69,2.21,4.29,2.9c1.67,0.7,3.44,1.06,5.26,1.06c1.08,0,2.16-0.13,3.2-0.38c1.01-0.25,1.99-0.61,2.92-1.08
		c0.92-0.47,1.76-1.09,2.47-1.83c0.7-0.73,1.27-1.56,1.69-2.47c0.43-0.91,0.7-1.88,0.8-2.88c0.11-1.03,0.04-2.06-0.21-3.06
		c-0.42-1.72-1.27-2.95-2.51-3.63c-0.77-0.43-1.7-0.65-2.76-0.65c-0.02,0-0.03,0-0.05,0c-0.8,0-1.68,0.12-2.65,0.36l0.06-0.16
		c0.01-0.01,0.02-0.03,0.03-0.04c0-0.01,0.01-0.01,0.01-0.02c0.01-0.01,0.01-0.01,0.02-0.02l0.01-0.01l0,0l0,0l0,0c0,0,0,0,0,0l0,0
		c0.01-0.01,0.01-0.01,0.02-0.02l0.01-0.01l0,0l0,0c0.01,0,0.01-0.01,0.02-0.01l0.01-0.01l0.01-0.01c0.01-0.01,0.01-0.01,0.02-0.02
		c0.01-0.01,0.01-0.01,0.02-0.01c0.01,0,0.01-0.01,0.02-0.01c0.01,0,0.01-0.01,0.02-0.01c0.01,0,0.01-0.01,0.02-0.01
		c0.03-0.02,0.06-0.04,0.09-0.05c0.06-0.03,0.13-0.07,0.2-0.1c0.07-0.03,0.14-0.06,0.2-0.1c0.03-0.02,0.06-0.04,0.1-0.05
		c0.03-0.02,0.06-0.04,0.09-0.06c0.05-0.04,0.1-0.08,0.14-0.13c0.02-0.02,0.04-0.04,0.05-0.06c0.02-0.02,0.03-0.04,0.04-0.06
		c0.02-0.04,0.04-0.08,0.05-0.11c0.01-0.03,0.02-0.06,0.02-0.08c0-0.01,0-0.02,0-0.02c0,0,0-0.01,0-0.01s0,0,0,0.01
		c0,0,0,0.01-0.01,0.02c-0.01,0.02-0.01,0.04-0.03,0.07c-0.02,0.03-0.04,0.06-0.06,0.1c-0.01,0.02-0.03,0.03-0.05,0.05
		c-0.02,0.02-0.04,0.03-0.06,0.05c-0.04,0.03-0.09,0.06-0.15,0.09c-0.03,0.01-0.06,0.03-0.09,0.04c-0.03,0.01-0.06,0.02-0.09,0.03
		c-0.07,0.02-0.14,0.04-0.21,0.06c-0.07,0.02-0.15,0.04-0.22,0.07c-0.04,0.01-0.08,0.03-0.11,0.04c-0.01,0-0.02,0.01-0.03,0.01
		c-0.01,0-0.02,0.01-0.03,0.01c-0.01,0-0.02,0.01-0.03,0.01c-0.01,0-0.02,0.01-0.03,0.01c0,0-0.01,0-0.01,0.01
		c0.05-0.25,0.06-0.4,0.06-0.4s-0.01,0-0.02,0c0-0.01,0-0.02,0-0.02s-0.15,0.02-0.4,0.07c0,0,0-0.01,0.01-0.01
		c0.01-0.01,0.01-0.02,0.01-0.03c0-0.01,0.01-0.02,0.01-0.03c0-0.01,0.01-0.02,0.01-0.03c0-0.01,0.01-0.02,0.01-0.03
		c0.02-0.04,0.03-0.08,0.04-0.11c0.02-0.08,0.05-0.15,0.06-0.22c0.02-0.07,0.04-0.14,0.06-0.21c0.01-0.03,0.02-0.06,0.03-0.09
		c0.01-0.03,0.03-0.06,0.04-0.09c0.03-0.06,0.06-0.11,0.09-0.15c0.02-0.02,0.03-0.04,0.05-0.06c0.02-0.02,0.03-0.03,0.05-0.05
		c0.03-0.03,0.07-0.05,0.1-0.07c0.03-0.02,0.05-0.02,0.07-0.03c0.01,0,0.01,0,0.02-0.01c0,0,0.01,0,0.01,0s0,0-0.01,0
		c0,0-0.01,0-0.02,0c-0.02,0-0.04,0.01-0.08,0.02c-0.03,0.01-0.07,0.03-0.11,0.05c-0.02,0.01-0.04,0.03-0.06,0.04
		c-0.02,0.02-0.04,0.03-0.06,0.05c-0.04,0.04-0.09,0.09-0.13,0.14c-0.02,0.03-0.04,0.06-0.06,0.09c-0.02,0.03-0.04,0.06-0.05,0.1
		c-0.03,0.06-0.06,0.13-0.1,0.2c-0.03,0.07-0.06,0.14-0.1,0.2c-0.02,0.03-0.03,0.06-0.05,0.09c0,0.01-0.01,0.01-0.01,0.02
		c0,0.01-0.01,0.01-0.01,0.02c0,0.01-0.01,0.01-0.01,0.02c0,0.01-0.01,0.01-0.01,0.02c-0.01,0.01-0.01,0.01-0.02,0.02l-0.01,0.01
		l-0.01,0.01c0,0.01-0.01,0.01-0.01,0.02l0,0l0,0l-0.01,0.01c-0.01,0.01-0.01,0.01-0.02,0.02l0,0c0-0.01,0,0,0,0l0,0l0,0l0,0
		l-0.01,0.01c-0.01,0.01-0.01,0.01-0.02,0.02c-0.01,0-0.01,0.01-0.02,0.01c-0.01,0.01-0.03,0.02-0.04,0.03
		c-0.02-0.08-0.04-0.16-0.08-0.25c-0.05-0.13-0.12-0.27-0.21-0.4c-0.02-0.03-0.05-0.07-0.07-0.1c-0.01-0.02-0.03-0.03-0.04-0.05
		c-0.01-0.02-0.03-0.03-0.04-0.05c-0.03-0.03-0.06-0.07-0.09-0.1c-0.02-0.02-0.03-0.03-0.05-0.05c-0.02-0.02-0.03-0.03-0.05-0.05
		c-0.14-0.13-0.3-0.25-0.48-0.35c-0.09-0.05-0.19-0.1-0.29-0.14c-0.1-0.04-0.21-0.07-0.33-0.1c-0.03-0.01-0.06-0.01-0.09-0.02
		l-0.04-0.01l-0.01,0l-0.01,0l-0.01,0l-0.02,0c-0.03,0-0.05-0.01-0.08-0.01l-0.04,0c-0.01,0-0.03,0-0.04,0
		c-0.06,0-0.12-0.01-0.18-0.01c-0.06,0-0.12,0-0.18,0c-0.24,0.01-0.49,0.06-0.74,0.13c-0.49,0.14-0.97,0.4-1.41,0.72
		c-0.05,0.04-0.11,0.08-0.16,0.13c-0.05,0.04-0.11,0.09-0.16,0.13c-0.05,0.04-0.1,0.09-0.16,0.14c-0.03,0.02-0.05,0.05-0.08,0.07
		c-0.03,0.02-0.05,0.05-0.08,0.07c-0.2,0.19-0.4,0.4-0.58,0.62c-0.19,0.22-0.36,0.44-0.53,0.67c-0.17,0.23-0.33,0.47-0.49,0.7
		c-0.32,0.48-0.62,0.96-0.93,1.43c-0.15,0.23-0.31,0.47-0.47,0.69c-0.16,0.22-0.32,0.44-0.48,0.65c-0.08,0.11-0.17,0.21-0.25,0.31
		c-0.04,0.05-0.09,0.1-0.13,0.15C8.15,16.95,8.13,16.98,8.1,17c-0.02,0.02-0.04,0.05-0.07,0.07c-0.02,0.02-0.04,0.05-0.07,0.07
		c-0.02,0.02-0.04,0.05-0.07,0.07c-0.04,0.04-0.09,0.09-0.13,0.13c-0.04,0.04-0.09,0.09-0.14,0.13c-0.02,0.02-0.04,0.04-0.07,0.06
		c-0.02,0.02-0.05,0.04-0.07,0.06c-0.05,0.04-0.09,0.08-0.14,0.12c-0.05,0.04-0.09,0.08-0.14,0.11c-0.02,0.02-0.05,0.04-0.07,0.05
		c-0.02,0.02-0.05,0.04-0.07,0.05c-0.05,0.03-0.09,0.07-0.14,0.1c-0.05,0.03-0.09,0.06-0.14,0.1c-0.02,0.02-0.05,0.03-0.07,0.05
		c-0.02,0.01-0.05,0.03-0.07,0.04c-0.09,0.06-0.19,0.11-0.28,0.17c-0.37,0.21-0.74,0.36-1.06,0.47c-0.33,0.11-0.62,0.18-0.87,0.22
		c-0.03,0.01-0.06,0.01-0.09,0.02c-0.03,0-0.06,0.01-0.08,0.01c-0.05,0.01-0.11,0.02-0.15,0.02c-0.05,0.01-0.09,0.01-0.13,0.02
		c-0.04,0-0.08,0.01-0.11,0.01c-0.13,0.01-0.2,0.02-0.2,0.02s0.07,0,0.2-0.01c0.03,0,0.07-0.01,0.11-0.01
		c0.04,0,0.09-0.01,0.13-0.01c0.05,0,0.1-0.01,0.16-0.02c0.03,0,0.06-0.01,0.09-0.01c0.03,0,0.06-0.01,0.09-0.01
		C4.7,19.06,5,19,5.33,18.9c0.33-0.1,0.7-0.25,1.08-0.45c0.09-0.05,0.19-0.1,0.29-0.16c0.02-0.01,0.05-0.03,0.07-0.04
		c0.02-0.01,0.05-0.03,0.07-0.05c0.05-0.03,0.1-0.06,0.15-0.09c0.05-0.03,0.1-0.07,0.14-0.1c0.02-0.02,0.05-0.03,0.07-0.05
		c0.02-0.02,0.05-0.04,0.07-0.06c0.05-0.04,0.1-0.07,0.14-0.11c0.05-0.04,0.09-0.08,0.14-0.12c0.02-0.02,0.05-0.04,0.07-0.06
		c0.02-0.02,0.05-0.04,0.07-0.06c0.05-0.04,0.09-0.08,0.14-0.13c0.05-0.04,0.09-0.09,0.14-0.13c0.02-0.02,0.05-0.04,0.07-0.07
		c0.02-0.02,0.05-0.05,0.07-0.07c0.02-0.02,0.05-0.05,0.07-0.07c0.02-0.02,0.04-0.05,0.07-0.07c0.04-0.05,0.09-0.1,0.13-0.15
		c0.09-0.1,0.18-0.2,0.26-0.3c0.17-0.21,0.34-0.42,0.5-0.65c0.16-0.22,0.33-0.45,0.48-0.68c0.32-0.46,0.63-0.94,0.96-1.41
		c0.16-0.23,0.33-0.46,0.5-0.68c0.17-0.22,0.35-0.44,0.54-0.65c0.19-0.21,0.38-0.4,0.58-0.59c0.02-0.02,0.05-0.05,0.07-0.07
		c0.03-0.02,0.05-0.04,0.08-0.07c0.05-0.04,0.1-0.09,0.15-0.13c0.05-0.04,0.1-0.08,0.16-0.12c0.05-0.04,0.11-0.08,0.16-0.12
		c0.43-0.3,0.88-0.53,1.33-0.65c0.23-0.06,0.45-0.09,0.67-0.1c0.05,0,0.11,0,0.16,0c0.05,0,0.1,0.01,0.15,0.01c0.01,0,0.03,0,0.04,0
		l0.04,0.01c0.03,0,0.05,0.01,0.08,0.01l0.02,0l0.01,0l0,0l0.04,0.01c0.02,0,0.05,0.01,0.07,0.02c0.1,0.02,0.19,0.05,0.27,0.09
		c0.09,0.04,0.17,0.08,0.25,0.12c0.16,0.09,0.29,0.2,0.41,0.31c0.01,0.01,0.03,0.03,0.04,0.04c0.01,0.01,0.03,0.03,0.04,0.04
		c0.03,0.03,0.05,0.06,0.07,0.09c0.01,0.01,0.02,0.03,0.03,0.04c0.01,0.01,0.02,0.03,0.03,0.04c0.02,0.03,0.04,0.06,0.06,0.09
		c0.07,0.11,0.13,0.23,0.16,0.33c0.03,0.09,0.05,0.17,0.07,0.25c-0.1,0.03-0.21,0.06-0.32,0.09c-0.01-0.03-0.02-0.06-0.04-0.08
		c-0.1-0.09-0.3-0.04-0.46,0.12c-0.05,0.05-0.09,0.1-0.12,0.16c-1.3,0.47-2.6,1.32-1.9,2.76c0.09,0.15,0.2,0.28,0.33,0.4
		c0.12,0.12,0.26,0.23,0.4,0.33c1.44,0.69,2.29-0.61,2.76-1.91c0.05-0.03,0.11-0.07,0.16-0.12c0.16-0.16,0.21-0.37,0.12-0.46
		c-0.02-0.02-0.04-0.03-0.07-0.04c2.27-0.6,4.08-0.54,5.38,0.18c1.12,0.62,1.89,1.74,2.28,3.33c0.95,3.88-0.9,7.87-4.5,9.7
		c-1.84,0.94-3.82,1.41-5.9,1.41C7.82,28.03,1.97,22.18,1.97,15c0-3.48,1.36-6.76,3.82-9.22C8.25,3.33,11.52,1.97,15,1.97
		c0.01,0,0.01,0,0.02,0C22.19,1.98,28.03,7.83,28.03,15c0,2.11-0.51,4.2-1.49,6.05c-0.06,0.12-0.02,0.26,0.1,0.33
		c0.12,0.06,0.26,0.02,0.33-0.1c0.5-0.95,0.88-1.96,1.14-2.99c0.27-1.07,0.4-2.17,0.4-3.29C28.51,13.18,28.15,11.41,27.45,9.75z"/>
</g>
</svg>
