<svg width="47" height="48" viewBox="0 0 47 48" fill="none" xmlns="http://www.w3.org/2000/svg">
<path d="M33.11 0.666992H13.5567C5.06333 0.666992 0 5.73033 0 14.2237V33.7537C0 42.2703 5.06333 47.3337 13.5567 47.3337H33.0867C41.58 47.3337 46.6433 42.2703 46.6433 33.777V14.2237C46.6667 5.73033 41.6033 0.666992 33.11 0.666992ZM23.3333 33.0537C18.34 33.0537 14.28 28.9937 14.28 24.0003C14.28 19.007 18.34 14.947 23.3333 14.947C28.3267 14.947 32.3867 19.007 32.3867 24.0003C32.3867 28.9937 28.3267 33.0537 23.3333 33.0537ZM37.1467 12.0537C37.03 12.3337 36.8667 12.5903 36.6567 12.8237C36.4233 13.0337 36.1667 13.197 35.8867 13.3137C35.462 13.4939 34.9933 13.5436 34.5403 13.4563C34.0873 13.369 33.6706 13.1488 33.3433 12.8237C33.1333 12.5903 32.97 12.3337 32.8533 12.0537C32.7335 11.7732 32.67 11.4719 32.6667 11.167C32.6667 10.8637 32.7367 10.5603 32.8533 10.2803C32.97 9.97699 33.1333 9.74366 33.3433 9.51033C33.88 8.97366 34.6967 8.71699 35.4433 8.88033C35.6067 8.90366 35.7467 8.95033 35.8867 9.02033C36.0267 9.06699 36.1667 9.13699 36.3067 9.23033C36.4233 9.30033 36.54 9.41699 36.6567 9.51033C36.8667 9.74366 37.03 9.97699 37.1467 10.2803C37.2633 10.5603 37.3333 10.8637 37.3333 11.167C37.3333 11.4703 37.2633 11.7737 37.1467 12.0537Z" fill="white"/>
</svg>
