<svg width="735" height="409" viewBox="0 0 735 409" fill="none" xmlns="http://www.w3.org/2000/svg">
<path d="M161.087 309.593C207.205 309.593 242.019 230.016 242.019 160.804C242.019 123.604 225.079 112.303 205.788 112.303C195.44 112.303 186.497 115.129 178.972 119.361C174.732 121.714 172.853 123.132 170.03 123.132C167.206 123.132 165.789 121.252 165.789 117.954C165.789 110.896 175.204 93.4725 192.616 81.6991C210.029 69.4532 225.079 66.628 240.613 66.628C275.899 66.628 301.781 90.6473 301.781 140.555C301.781 243.207 230.254 350.091 143.675 350.091C82.5063 350.091 35.9161 311.957 35.9161 235.204C35.9161 92.5377 141.786 32.7363 216.137 32.7363C245.777 32.7363 258.959 39.3319 258.959 46.3896C258.959 49.2148 257.081 51.0948 252.84 51.0948C249.072 51.0948 242.019 50.16 230.254 50.16C169.547 50.16 117.793 114.194 117.793 228.619C117.793 285.112 136.611 309.593 161.087 309.593Z" fill="#FFE006"/>
<path d="M295.159 302.998C295.159 260.148 331.39 199.884 331.39 126.902C331.39 111.358 323.392 103.828 313.043 103.828C308.814 103.828 306.452 101.948 306.452 98.1776C306.452 88.2947 331.39 72.751 358.217 72.751C382.682 72.751 398.216 85.9317 398.216 109.478C398.216 149.031 360.568 244.614 360.568 289.817C360.568 302.063 367.159 309.121 375.629 309.121C383.627 309.121 387.395 305.361 393.513 299.238C396.809 295.94 398.688 294.533 401.511 294.533C405.741 294.533 408.092 298.303 408.092 301.118C408.092 306.296 405.269 310.066 400.567 316.189C390.68 328.908 370.916 347.266 341.277 347.266C309.748 347.266 295.159 327.49 295.159 302.998Z" fill="#FFE006"/>
<path d="M539.833 347.266C511.6 347.266 503.602 322.312 503.602 322.312C503.602 322.312 478.665 347.266 444.312 347.266C416.551 347.266 393.965 328.435 393.965 292.17C393.965 245.56 422.198 198.004 489.486 198.004C514.423 198.004 521.487 206.952 529.012 206.952C537.01 206.952 557.246 198.004 568.067 198.004C572.307 198.004 575.12 199.884 575.12 205.062C575.12 216.363 558.652 253.09 558.652 289.817C558.652 302.063 566.177 309.121 574.647 309.121C582.645 309.121 586.413 305.361 592.532 299.238C595.828 295.94 597.706 294.533 600.53 294.533C604.759 294.533 607.111 298.303 607.111 301.118C607.111 306.296 604.287 310.066 599.585 316.189C589.719 328.897 569.484 347.266 539.833 347.266ZM493.715 218.715C466.899 218.715 455.134 268.161 455.134 294.05C455.134 306.296 460.78 316.179 471.129 316.179C480.071 316.179 489.475 308.176 495.594 294.05C501.241 281.804 507.832 250.727 507.832 232.368C507.832 223.903 503.602 218.715 493.715 218.715ZM549.72 142.908C549.72 150.438 547.842 154.209 538.899 161.739C520.081 178.217 491.847 186.22 478.203 186.22C473.029 186.22 470.205 182.922 470.205 179.625C470.205 175.865 471.612 173.974 477.258 170.677C490.903 162.674 506.898 149.02 515.84 122.648C518.191 116.053 521.959 113.7 526.661 113.7C533.714 113.711 549.72 133.025 549.72 142.908Z" fill="#FFE006"/>
<path d="M645.21 291.235C656.503 291.235 664.028 300.656 664.028 312.891C664.028 328.435 650.856 347.739 632.027 347.739C621.678 347.739 614.153 338.318 614.153 325.61C614.153 310.539 628.27 291.235 645.21 291.235ZM661.216 262.973C652.273 267.216 640.98 270.031 636.74 270.031C631.565 270.031 627.797 267.678 627.797 259.202C627.797 253.079 654.152 77.4456 656.503 63.3197C657.448 56.7242 659.326 51.5464 668.741 48.7212C682.385 44.4887 697.447 39.7731 705.917 39.7731C710.146 39.7731 714.387 43.0709 714.387 47.776C714.387 60.022 688.032 171.611 671.092 250.716C669.213 258.74 667.324 260.158 661.216 262.973Z" fill="#FFE006"/>
</svg>
