<svg width="25" height="39" viewBox="0 0 25 39" fill="none" xmlns="http://www.w3.org/2000/svg">
<path d="M12.5 7.3125C12.8232 7.3125 13.1332 7.4409 13.3618 7.66946C13.5903 7.89802 13.7188 8.20802 13.7188 8.53125V13.4062C13.7188 13.7295 13.5903 14.0395 13.3618 14.268C13.1332 14.4966 12.8232 14.625 12.5 14.625C12.1768 14.625 11.8668 14.4966 11.6382 14.268C11.4097 14.0395 11.2812 13.7295 11.2812 13.4062V8.53125C11.2812 8.20802 11.4097 7.89802 11.6382 7.66946C11.8668 7.4409 12.1768 7.3125 12.5 7.3125ZM22.25 26.8125C22.25 29.3984 21.2228 31.8783 19.3943 33.7068C17.5658 35.5353 15.0859 36.5625 12.5 36.5625C9.91414 36.5625 7.43419 35.5353 5.60571 33.7068C3.77723 31.8783 2.75 29.3984 2.75 26.8125V12.1875C2.75 9.60164 3.77723 7.12169 5.60571 5.29321C7.43419 3.46473 9.91414 2.4375 12.5 2.4375C15.0859 2.4375 17.5658 3.46473 19.3943 5.29321C21.2228 7.12169 22.25 9.60164 22.25 12.1875V26.8125ZM12.5 0C9.26767 0 6.16774 1.28404 3.88214 3.56964C1.59654 5.85524 0.3125 8.95517 0.3125 12.1875V26.8125C0.3125 30.0448 1.59654 33.1448 3.88214 35.4304C6.16774 37.716 9.26767 39 12.5 39C15.7323 39 18.8323 37.716 21.1179 35.4304C23.4035 33.1448 24.6875 30.0448 24.6875 26.8125V12.1875C24.6875 8.95517 23.4035 5.85524 21.1179 3.56964C18.8323 1.28404 15.7323 0 12.5 0V0Z" fill="black"/>
</svg>
