<svg width="48" height="48" viewBox="0 0 48 48" fill="none" xmlns="http://www.w3.org/2000/svg">
<path d="M43.96 22.8199C43.28 11.2199 32.74 2.27992 20.6 4.27992C12.24 5.65992 5.54 12.4399 4.24 20.7999C3.48 25.6399 4.48 30.2199 6.66 33.9999L4.88 40.6199C4.48 42.1199 5.86 43.4799 7.34 43.0599L13.86 41.2599C16.82 42.9999 20.28 43.9999 23.98 43.9999C35.26 43.9999 44.62 34.0599 43.96 22.8199ZM33.76 31.4399C33.2777 32.4293 32.4536 33.2108 31.44 33.6399C30.84 33.8999 30.18 34.0199 29.48 34.0199C28.46 34.0199 27.36 33.7799 26.22 33.2799C25.005 32.7465 23.8516 32.0826 22.78 31.2999C21.62 30.4599 20.54 29.5199 19.5 28.4999C18.46 27.4599 17.54 26.3599 16.7 25.2199C15.88 24.0799 15.22 22.9399 14.74 21.7999C14.26 20.6599 14.02 19.5599 14.02 18.5199C14.02 17.8399 14.14 17.1799 14.38 16.5799C14.62 15.9599 15 15.3999 15.54 14.8999C16.18 14.2599 16.88 13.9599 17.62 13.9599C17.9 13.9599 18.18 14.0199 18.44 14.1399C18.7 14.2599 18.94 14.4399 19.12 14.6999L21.44 17.9799C21.62 18.2399 21.76 18.4599 21.84 18.6799C21.94 18.8999 21.98 19.0999 21.98 19.2999C21.98 19.5399 21.9 19.7799 21.76 20.0199C21.62 20.2599 21.44 20.4999 21.2 20.7399L20.44 21.5399C20.32 21.6599 20.28 21.7799 20.28 21.9399C20.28 22.0199 20.3 22.0999 20.32 22.1799C20.36 22.2599 20.38 22.3199 20.4 22.3799C20.58 22.7199 20.9 23.1399 21.34 23.6599C22.2764 24.7603 23.2997 25.7836 24.4 26.7199C24.92 27.1599 25.36 27.4599 25.7 27.6399C25.76 27.6599 25.82 27.6999 25.88 27.7199C25.96 27.7599 26.04 27.7599 26.14 27.7599C26.32 27.7599 26.44 27.6999 26.56 27.5799L27.32 26.8199C27.58 26.5599 27.82 26.3799 28.04 26.2599C28.28 26.1199 28.5 26.0399 28.76 26.0399C28.96 26.0399 29.16 26.0799 29.38 26.1799C29.6 26.2799 29.84 26.3999 30.08 26.5799L33.4 28.9399C33.66 29.1199 33.84 29.3399 33.96 29.5799C34.06 29.8399 34.12 30.0799 34.12 30.3599C34 30.6999 33.92 31.0799 33.76 31.4399Z" fill="white"/>
</svg>
